<?xml version="1.0" encoding="utf-8" standalone="no"?>
<!DOCTYPE svg PUBLIC "-//W3C//DTD SVG 1.1//EN" "http://www.w3.org/Graphics/SVG/1.1/DTD/svg11.dtd">
<svg version="1.1" width="1133.76pt" height="1133.76pt" viewBox="0 0 1133.76 1133.76" overflow="visible" xmlns="http://www.w3.org/2000/svg">
  <g id="默认">
    <circle cx="918.3569946289062" cy="856.5399780273438" r="5.6692914962768555" stroke="#000000" stroke-width="0.23999999463558197" fill="none" />
    <circle cx="943.9719848632812" cy="297.15386962890625" r="5.6692914962768555" stroke="#000000" stroke-width="0.23999999463558197" fill="none" />
    <circle cx="679.7816772460938" cy="608.5106201171875" r="5.6692914962768555" stroke="#000000" stroke-width="0.23999999463558197" fill="none" />
    <circle cx="208.3163604736328" cy="810.4904174804688" r="5.6692914962768555" stroke="#000000" stroke-width="0.23999999463558197" fill="none" />
    <circle cx="679.7816772460938" cy="488.0381774902344" r="5.6692914962768555" stroke="#000000" stroke-width="0.23999999463558197" fill="none" />
    <circle cx="996.3097534179688" cy="856.5399780273438" r="5.6692914962768555" stroke="#000000" stroke-width="0.23999999463558197" fill="none" />
    <path d="M665.6084,721.8964 L665.6084,753.0776" stroke="#000000" stroke-width="0.24" stroke-linecap="round" stroke-linejoin="round" fill="none" />
    <path d="M693.9549,721.8964 L693.9549,753.0776" stroke="#000000" stroke-width="0.24" stroke-linecap="round" stroke-linejoin="round" fill="none" />
    <path d="M24.064392,796.31726 L-2.6645353E-15,796.31726" stroke="#000000" stroke-width="0.24" stroke-linecap="round" stroke-linejoin="round" fill="none" />
    <path d="M1109.6957,870.7132 L1133,870.7132" stroke="#000000" stroke-width="0.24" stroke-linecap="round" stroke-linejoin="round" fill="none" />
    <path d="M929.7987,141.24835 L929.7987,197.94127 L858.9326,197.94127 L773.89325,197.94127 L773.89325,297.15387 L858.9326,297.15387 L858.9326,679.83105 L1029.0114,679.83105 L1029.0114,297.15387 L1114.0507,297.15387 L1114.0507,197.94127 L1029.0114,197.94127 L958.1452,197.94127 L958.1452,141.24835" stroke="#000000" stroke-width="0.24" stroke-linecap="round" stroke-linejoin="round" fill="none" />
    <circle cx="137.45021057128906" cy="810.4904174804688" r="5.6692914962768555" stroke="#000000" stroke-width="0.23999999463558197" fill="none" />
    <path d="M553.80115,528.3636 L497.10828,528.3636 L497.10828,457.49744 L497.10828,372.4581 L397.8957,372.4581 L397.8957,457.49744 L15.218515,457.49744 L15.218515,627.57623 L397.8957,627.57623 L397.8957,712.61554 L497.10828,712.61554 L497.10828,627.57623 L497.10828,556.7101 L553.80115,556.7101" stroke="#000000" stroke-width="0.24" stroke-linecap="round" stroke-linejoin="round" fill="none" />
    <path d="M43.915714,291.39325 L12.734612,291.39325" stroke="#000000" stroke-width="0.24" stroke-linecap="round" stroke-linejoin="round" fill="none" />
    <circle cx="157.30154418945312" cy="277.22003173828125" r="5.6692914962768555" stroke="#000000" stroke-width="0.23999999463558197" fill="none" />
    <circle cx="334.11614990234375" cy="542.5368041992188" r="5.6692914962768555" stroke="#000000" stroke-width="0.23999999463558197" fill="none" />
    <circle cx="213.99444580078125" cy="277.22003173828125" r="5.6692914962768555" stroke="#000000" stroke-width="0.23999999463558197" fill="none" />
    <circle cx="270.6873779296875" cy="277.22003173828125" r="5.6692914962768555" stroke="#000000" stroke-width="0.23999999463558197" fill="none" />
    <path d="M24.064392,824.6637 L80.7573,824.6637 L80.7573,895.52985 L80.7573,980.5692 L179.9699,980.5692 L179.9699,895.52985 L562.6471,895.52985 L562.6471,725.4511 L179.9699,725.4511 L179.9699,640.4117 L80.7573,640.4117 L80.7573,725.4511 L80.7573,796.31726 L24.064392,796.31726" stroke="#000000" stroke-width="0.24" stroke-linecap="round" stroke-linejoin="round" fill="none" />
    <path d="M43.915714,263.04678 L12.734612,263.04678" stroke="#000000" stroke-width="0.24" stroke-linecap="round" stroke-linejoin="round" fill="none" />
    <circle cx="376.6358642578125" cy="542.5368041992188" r="5.6692914962768555" stroke="#000000" stroke-width="0.23999999463558197" fill="none" />
    <circle cx="943.9719848632812" cy="382.1932373046875" r="5.6692914962768555" stroke="#000000" stroke-width="0.23999999463558197" fill="none" />
    <path d="M553.80115,556.7101 L584.9823,556.7101" stroke="#000000" stroke-width="0.24" stroke-linecap="round" stroke-linejoin="round" fill="none" />
    <circle cx="904.1837768554688" cy="856.5399780273438" r="5.6692914962768555" stroke="#000000" stroke-width="0.23999999463558197" fill="none" />
    <circle cx="679.7816772460938" cy="558.9043579101562" r="5.6692914962768555" stroke="#000000" stroke-width="0.23999999463558197" fill="none" />
    <path d="M693.9549,721.8964 L693.9549,665.20355 L764.821,665.20355 L849.8604,665.20355 L849.8604,565.99097 L764.821,565.99097 L764.821,183.31378 L594.74225,183.31378 L594.74225,565.99097 L509.70294,565.99097 L509.70294,665.20355 L594.74225,665.20355 L665.6084,665.20355 L665.6084,721.8964" stroke="#000000" stroke-width="0.24" stroke-linecap="round" stroke-linejoin="round" fill="none" />
    <circle cx="440.41534423828125" cy="542.5368041992188" r="5.6692914962768555" stroke="#000000" stroke-width="0.23999999463558197" fill="none" />
    <path d="M43.915714,291.39325 L100.60863,291.39325 L100.60863,362.2594 L100.60863,447.29877 L199.82123,447.29877 L199.82123,362.2594 L582.4984,362.2594 L582.4984,192.18066 L199.82123,192.18066 L199.82123,107.1413 L100.60863,107.1413 L100.60863,192.18066 L100.60863,263.04678 L43.915714,263.04678" stroke="#000000" stroke-width="0.24" stroke-linecap="round" stroke-linejoin="round" fill="none" />
    <path d="M553.80115,528.3636 L584.9823,528.3636" stroke="#000000" stroke-width="0.24" stroke-linecap="round" stroke-linejoin="round" fill="none" />
    <path d="M24.064392,824.6637 L-2.6645353E-15,824.6637" stroke="#000000" stroke-width="0.24" stroke-linecap="round" stroke-linejoin="round" fill="none" />
    <path d="M929.7987,141.24835 L929.7987,110.06725" stroke="#000000" stroke-width="0.24" stroke-linecap="round" stroke-linejoin="round" fill="none" />
    <circle cx="943.9719848632812" cy="254.63417053222656" r="5.6692914962768555" stroke="#000000" stroke-width="0.23999999463558197" fill="none" />
    <path d="M1109.6957,842.3667 L1053.0027,842.3667 L1053.0027,771.5006 L1053.0027,686.46124 L953.7901,686.46124 L953.7901,771.5006 L571.1129,771.5006 L571.1129,941.57935 L953.7901,941.57935 L953.7901,1026.6188 L1053.0027,1026.6188 L1053.0027,941.57935 L1053.0027,870.7132 L1109.6957,870.7132" stroke="#000000" stroke-width="0.24" stroke-linecap="round" stroke-linejoin="round" fill="none" />
    <path d="M958.1452,141.24835 L958.1452,110.06725" stroke="#000000" stroke-width="0.24" stroke-linecap="round" stroke-linejoin="round" fill="none" />
    <path d="M1109.6957,842.3667 L1133,842.3667" stroke="#000000" stroke-width="0.24" stroke-linecap="round" stroke-linejoin="round" fill="none" />
    <circle cx="236.66282653808594" cy="810.4904174804688" r="5.6692914962768555" stroke="#000000" stroke-width="0.23999999463558197" fill="none" />
    <path d="M247.91954,249.54532 A5.745925,5.745925 0 0 0 242.25024,243.87611" stroke="#000000" stroke-width="0.24" stroke-linecap="round" stroke-linejoin="round" fill="none" />
    <path d="M242.25024,243.87611 A5.745925,5.745925 0 0 0 236.58093,249.54532" stroke="#000000" stroke-width="0.24" stroke-linecap="round" stroke-linejoin="round" fill="none" />
    <path d="M236.58093,249.54532 A5.7459445,5.7459445 0 0 0 242.25024,255.21461" stroke="#000000" stroke-width="0.24" stroke-linecap="round" stroke-linejoin="round" fill="none" />
    <path d="M242.25024,255.21461 A5.7459445,5.7459445 0 0 0 247.91954,249.54532" stroke="#000000" stroke-width="0.24" stroke-linecap="round" stroke-linejoin="round" fill="none" />
    <path d="M349.79736,570.21155 A5.745925,5.745925 0 0 0 355.46667,575.88074" stroke="#000000" stroke-width="0.24" stroke-linecap="round" stroke-linejoin="round" fill="none" />
    <path d="M355.46667,575.88074 A5.745925,5.745925 0 0 0 361.13596,570.21155" stroke="#000000" stroke-width="0.24" stroke-linecap="round" stroke-linejoin="round" fill="none" />
    <path d="M361.13596,570.21155 A5.7459445,5.7459445 0 0 0 355.46667,564.54224" stroke="#000000" stroke-width="0.24" stroke-linecap="round" stroke-linejoin="round" fill="none" />
    <path d="M355.46667,564.54224 A5.7459445,5.7459445 0 0 0 349.79736,570.21155" stroke="#000000" stroke-width="0.24" stroke-linecap="round" stroke-linejoin="round" fill="none" />
    <path d="M971.6467,345.25217 A5.745925,5.745925 0 0 0 977.3159,339.5829" stroke="#000000" stroke-width="0.24" stroke-linecap="round" stroke-linejoin="round" fill="none" />
    <path d="M977.3159,339.5829 A5.745925,5.745925 0 0 0 971.6467,333.91357" stroke="#000000" stroke-width="0.24" stroke-linecap="round" stroke-linejoin="round" fill="none" />
    <path d="M971.6467,333.91357 A5.7459445,5.7459445 0 0 0 965.9774,339.5829" stroke="#000000" stroke-width="0.24" stroke-linecap="round" stroke-linejoin="round" fill="none" />
    <path d="M965.9774,339.5829 A5.7459445,5.7459445 0 0 0 971.6467,345.25217" stroke="#000000" stroke-width="0.24" stroke-linecap="round" stroke-linejoin="round" fill="none" />
    <path d="M652.10693,517.89264 A5.745925,5.745925 0 0 0 646.43774,523.56195" stroke="#000000" stroke-width="0.24" stroke-linecap="round" stroke-linejoin="round" fill="none" />
    <path d="M646.43774,523.56195 A5.745925,5.745925 0 0 0 652.10693,529.23126" stroke="#000000" stroke-width="0.24" stroke-linecap="round" stroke-linejoin="round" fill="none" />
    <path d="M652.10693,529.23126 A5.7459445,5.7459445 0 0 0 657.77625,523.56195" stroke="#000000" stroke-width="0.24" stroke-linecap="round" stroke-linejoin="round" fill="none" />
    <path d="M657.77625,523.56195 A5.7459445,5.7459445 0 0 0 652.10693,517.89264" stroke="#000000" stroke-width="0.24" stroke-linecap="round" stroke-linejoin="round" fill="none" />
    <path d="M228.06822,782.81573 A5.745925,5.745925 0 0 0 222.39891,777.14655" stroke="#000000" stroke-width="0.24" stroke-linecap="round" stroke-linejoin="round" fill="none" />
    <path d="M222.39891,777.14655 A5.745925,5.745925 0 0 0 216.72961,782.81573" stroke="#000000" stroke-width="0.24" stroke-linecap="round" stroke-linejoin="round" fill="none" />
    <path d="M216.72961,782.81573 A5.7459445,5.7459445 0 0 0 222.39891,788.48505" stroke="#000000" stroke-width="0.24" stroke-linecap="round" stroke-linejoin="round" fill="none" />
    <path d="M222.39891,788.48505 A5.7459445,5.7459445 0 0 0 228.06822,782.81573" stroke="#000000" stroke-width="0.24" stroke-linecap="round" stroke-linejoin="round" fill="none" />
    <path d="M905.6918,884.21466 A5.745925,5.745925 0 0 0 911.3611,889.8839" stroke="#000000" stroke-width="0.24" stroke-linecap="round" stroke-linejoin="round" fill="none" />
    <path d="M911.3611,889.8839 A5.745925,5.745925 0 0 0 917.0304,884.21466" stroke="#000000" stroke-width="0.24" stroke-linecap="round" stroke-linejoin="round" fill="none" />
    <path d="M917.0304,884.21466 A5.7459445,5.7459445 0 0 0 911.3611,878.5454" stroke="#000000" stroke-width="0.24" stroke-linecap="round" stroke-linejoin="round" fill="none" />
    <path d="M911.3611,878.5454 A5.7459445,5.7459445 0 0 0 905.6918,884.21466" stroke="#000000" stroke-width="0.24" stroke-linecap="round" stroke-linejoin="round" fill="none" />
    <path d="M247.91954,303.40363 A5.7460117,5.7460117 0 0 0 242.25024,297.7343" stroke="#000000" stroke-width="0.24" stroke-linecap="round" stroke-linejoin="round" fill="none" />
    <path d="M242.25024,297.7343 A5.7460117,5.7460117 0 0 0 236.58093,303.40363" stroke="#000000" stroke-width="0.24" stroke-linecap="round" stroke-linejoin="round" fill="none" />
    <path d="M236.58093,303.40363 A5.7460117,5.7460117 0 0 0 242.25024,309.0729" stroke="#000000" stroke-width="0.24" stroke-linecap="round" stroke-linejoin="round" fill="none" />
    <path d="M242.25024,309.0729 A5.7460117,5.7460117 0 0 0 247.91954,303.40363" stroke="#000000" stroke-width="0.24" stroke-linecap="round" stroke-linejoin="round" fill="none" />
    <path d="M349.79736,516.3532 A5.7460117,5.7460117 0 0 0 355.46667,522.0225" stroke="#000000" stroke-width="0.24" stroke-linecap="round" stroke-linejoin="round" fill="none" />
    <path d="M355.46667,522.0225 A5.7460117,5.7460117 0 0 0 361.13596,516.3532" stroke="#000000" stroke-width="0.24" stroke-linecap="round" stroke-linejoin="round" fill="none" />
    <path d="M361.13596,516.3532 A5.7460117,5.7460117 0 0 0 355.46667,510.68393" stroke="#000000" stroke-width="0.24" stroke-linecap="round" stroke-linejoin="round" fill="none" />
    <path d="M355.46667,510.68393 A5.7460117,5.7460117 0 0 0 349.79736,516.3532" stroke="#000000" stroke-width="0.24" stroke-linecap="round" stroke-linejoin="round" fill="none" />
    <path d="M917.7884,345.25217 A5.7460117,5.7460117 0 0 0 923.4577,339.5829" stroke="#000000" stroke-width="0.24" stroke-linecap="round" stroke-linejoin="round" fill="none" />
    <path d="M923.4577,339.5829 A5.7460117,5.7460117 0 0 0 917.7884,333.91357" stroke="#000000" stroke-width="0.24" stroke-linecap="round" stroke-linejoin="round" fill="none" />
    <path d="M917.7884,333.91357 A5.7460117,5.7460117 0 0 0 912.1191,339.5829" stroke="#000000" stroke-width="0.24" stroke-linecap="round" stroke-linejoin="round" fill="none" />
    <path d="M912.1191,339.5829 A5.7460117,5.7460117 0 0 0 917.7884,345.25217" stroke="#000000" stroke-width="0.24" stroke-linecap="round" stroke-linejoin="round" fill="none" />
    <path d="M705.9652,517.89264 A5.7460117,5.7460117 0 0 0 700.29596,523.56195" stroke="#000000" stroke-width="0.24" stroke-linecap="round" stroke-linejoin="round" fill="none" />
    <path d="M700.29596,523.56195 A5.7460117,5.7460117 0 0 0 705.9652,529.23126" stroke="#000000" stroke-width="0.24" stroke-linecap="round" stroke-linejoin="round" fill="none" />
    <path d="M705.9652,529.23126 A5.7460117,5.7460117 0 0 0 711.6345,523.56195" stroke="#000000" stroke-width="0.24" stroke-linecap="round" stroke-linejoin="round" fill="none" />
    <path d="M711.6345,523.56195 A5.7460117,5.7460117 0 0 0 705.9652,517.89264" stroke="#000000" stroke-width="0.24" stroke-linecap="round" stroke-linejoin="round" fill="none" />
    <path d="M228.06822,836.674 A5.7460117,5.7460117 0 0 0 222.39891,831.00476" stroke="#000000" stroke-width="0.24" stroke-linecap="round" stroke-linejoin="round" fill="none" />
    <path d="M222.39891,831.00476 A5.7460117,5.7460117 0 0 0 216.72961,836.674" stroke="#000000" stroke-width="0.24" stroke-linecap="round" stroke-linejoin="round" fill="none" />
    <path d="M216.72961,836.674 A5.7460117,5.7460117 0 0 0 222.39891,842.3433" stroke="#000000" stroke-width="0.24" stroke-linecap="round" stroke-linejoin="round" fill="none" />
    <path d="M222.39891,842.3433 A5.7460117,5.7460117 0 0 0 228.06822,836.674" stroke="#000000" stroke-width="0.24" stroke-linecap="round" stroke-linejoin="round" fill="none" />
    <path d="M905.6918,830.3564 A5.7460117,5.7460117 0 0 0 911.3611,836.0257" stroke="#000000" stroke-width="0.24" stroke-linecap="round" stroke-linejoin="round" fill="none" />
    <path d="M911.3611,836.0257 A5.7460117,5.7460117 0 0 0 917.0304,830.3564" stroke="#000000" stroke-width="0.24" stroke-linecap="round" stroke-linejoin="round" fill="none" />
    <path d="M917.0304,830.3564 A5.7460117,5.7460117 0 0 0 911.3611,824.6871" stroke="#000000" stroke-width="0.24" stroke-linecap="round" stroke-linejoin="round" fill="none" />
    <path d="M911.3611,824.6871 A5.7460117,5.7460117 0 0 0 905.6918,830.3564" stroke="#000000" stroke-width="0.24" stroke-linecap="round" stroke-linejoin="round" fill="none" />
  </g>
</svg>